<svg width="21" height="13" viewBox="0 0 21 13" fill="none" xmlns="http://www.w3.org/2000/svg">
<path d="M2.99615 5.90504C2.96913 5.96077 2.99371 6.0266 3.04162 6.06586C3.1545 6.15836 3.21094 6.29851 3.21094 6.48633V7.73438C3.21094 7.94172 3.26862 8.11653 3.38397 8.25881C3.41279 8.29435 3.41322 8.34655 3.38086 8.37891V8.37891C3.3485 8.41127 3.29631 8.41084 3.26076 8.38202C3.11848 8.26666 2.94367 8.20898 2.73633 8.20898H0.703125C0.495779 8.20898 0.320969 8.26666 0.178695 8.38202C0.143147 8.41084 0.0909542 8.41127 0.0585938 8.37891V8.37891C0.0262333 8.34655 0.0266607 8.29435 0.055483 8.25881C0.170838 8.11653 0.228516 7.94172 0.228516 7.73438V0.878906C0.228516 0.67157 0.170843 0.496766 0.0554989 0.354496C0.0264653 0.318684 0.0253707 0.26633 0.0571651 0.232945V0.232945C0.0900751 0.19839 0.14472 0.19815 0.181755 0.228242C0.326202 0.345612 0.499992 0.404297 0.703125 0.404297H2.73633C2.93946 0.404297 3.11325 0.345612 3.2577 0.228242C3.29473 0.19815 3.34938 0.19839 3.38229 0.232945V0.232945C3.41408 0.26633 3.41299 0.318685 3.38395 0.354496C3.26861 0.496766 3.21094 0.67157 3.21094 0.878906V2.70117C3.21094 2.91931 3.17033 3.12898 3.08913 3.3302C3.07917 3.35485 3.09074 3.38317 3.11542 3.39304V3.39304C3.1392 3.40256 3.16616 3.39129 3.17684 3.36802C3.26579 3.17417 3.39044 3.00071 3.55078 2.84766L5.75977 0.732422C5.84961 0.646484 5.9043 0.568359 5.92383 0.498047C5.93976 0.450243 5.94216 0.391607 5.93101 0.322136C5.92136 0.262017 5.95067 0.200299 6.00775 0.179098V0.179098C6.06567 0.157582 6.12868 0.1871 6.16605 0.236313C6.25109 0.348302 6.38714 0.404297 6.57422 0.404297H9.51562C9.72143 0.404297 9.93415 0.366263 10.1538 0.290195C10.1767 0.282248 10.202 0.294033 10.2101 0.316902V0.316902C10.2182 0.339383 10.2067 0.364099 10.1845 0.372978C9.98168 0.454248 9.79778 0.568203 9.63281 0.714844L7.25391 2.7832C7.10627 2.91742 6.94278 2.9839 6.76343 2.98265C6.71379 2.98231 6.66868 3.01643 6.66233 3.06567V3.06567C6.65581 3.11623 6.6928 3.16144 6.74245 3.173C6.91189 3.21247 7.05307 3.31692 7.16602 3.48633L10.2012 7.81641C10.3234 7.99615 10.4754 8.13951 10.6572 8.24647C10.6832 8.26178 10.6929 8.29503 10.6781 8.32134V8.32134C10.6638 8.34685 10.6318 8.35616 10.6054 8.34348C10.4189 8.25382 10.2158 8.20898 9.99609 8.20898H7.16602C6.97559 8.20898 6.83158 8.267 6.73398 8.38305C6.69553 8.42877 6.6311 8.44996 6.57835 8.42193V8.42193C6.52696 8.39463 6.50751 8.33194 6.5264 8.27691C6.55088 8.20558 6.55901 8.14388 6.55078 8.0918C6.53906 8.01367 6.49805 7.91992 6.42773 7.81055L4.75195 5.33789C4.63925 5.16372 4.58627 4.98357 4.593 4.79745C4.59461 4.75298 4.56338 4.71277 4.51916 4.70786V4.70786C4.47599 4.70306 4.43737 4.73387 4.42758 4.77619C4.38625 4.95466 4.28344 5.11065 4.11914 5.24414L3.58008 5.70703C3.47852 5.78906 3.39062 5.83789 3.31641 5.85352C3.26761 5.86436 3.20846 5.86109 3.13896 5.84371C3.08248 5.82959 3.02155 5.85265 2.99615 5.90504V5.90504Z" fill="#6E06F2"/>
<path d="M14.8184 5.78906L14.7715 6.98438C14.7715 7.19922 14.8223 7.51758 14.9238 7.93945C15.0293 8.35742 15.082 8.66602 15.082 8.86523C15.082 9.06836 15.1152 9.35156 15.1816 9.71484C15.248 10.0781 15.2812 10.3691 15.2812 10.5879C15.2812 10.8105 15.1855 10.9219 14.9941 10.9219C14.8066 10.9219 14.7129 10.8125 14.7129 10.5938C14.7129 10.3789 14.7461 10.0898 14.8125 9.72656C14.8828 9.36719 14.918 9.09766 14.918 8.91797C14.918 8.73828 14.8555 8.57422 14.7305 8.42578C14.6055 8.28125 14.457 8.20898 14.2852 8.20898C13.8945 8.20898 13.6992 8.68359 13.6992 9.63281C13.6992 9.85547 13.7285 10.1895 13.7871 10.6348C13.8457 11.0801 13.875 11.3848 13.875 11.5488C13.875 11.8691 13.7793 12.0293 13.5879 12.0293C13.4902 12.0293 13.4141 11.9863 13.3594 11.9004C13.3086 11.8184 13.2832 11.6992 13.2832 11.543C13.2832 11.3867 13.3164 11.1016 13.3828 10.6875C13.4531 10.2734 13.4883 9.97266 13.4883 9.78516C13.4883 9.59766 13.4766 9.41992 13.4531 9.25195C13.4336 9.08789 13.3945 8.91016 13.3359 8.71875C13.2812 8.53125 13.1914 8.37891 13.0664 8.26172C12.9453 8.14453 12.7871 8.08594 12.5918 8.08594C12.4004 8.08594 12.2266 8.16992 12.0703 8.33789C11.918 8.50586 11.8418 8.66406 11.8418 8.8125C11.8418 8.96484 11.8691 9.12305 11.9238 9.28711C11.9785 9.45117 12.0059 9.57812 12.0059 9.66797C12.0059 9.83984 11.9414 9.92578 11.8125 9.92578V9.92578C11.5707 9.92578 11.643 9.54792 11.6789 9.30883L11.6951 9.20046C11.7421 8.88757 11.7655 8.57161 11.7653 8.25522L11.7598 1.27148C11.7598 0.841424 11.6373 0.477671 11.3925 0.180228C11.3629 0.144188 11.3639 0.0912134 11.3969 0.0582063V0.0582063C11.4296 0.0255144 11.4819 0.0241647 11.5179 0.053141C11.8187 0.295057 12.1825 0.416016 12.6094 0.416016H19.3711C19.7977 0.416016 20.1614 0.295172 20.4621 0.053485C20.4984 0.0243277 20.5511 0.0256842 20.584 0.0585938V0.0585938C20.6169 0.0915033 20.6183 0.144229 20.5889 0.180312C20.3473 0.476813 20.2266 0.807334 20.2266 1.17188C20.2266 1.5625 20.252 1.86523 20.3027 2.08008C20.3487 2.27464 20.446 2.46279 20.5945 2.64454C20.6209 2.67689 20.6196 2.72418 20.59 2.75372V2.75372C20.5559 2.78781 20.4997 2.78355 20.4683 2.74693C20.2716 2.51721 20.0328 2.40234 19.752 2.40234H15.3047C15.113 2.40234 14.9453 2.34534 14.8016 2.23134C14.7673 2.20411 14.7175 2.20438 14.6865 2.23535V2.23535C14.6556 2.26632 14.6553 2.31608 14.6825 2.35043C14.7965 2.49457 14.8535 2.66422 14.8535 2.85938C14.8535 3.05467 14.7964 3.22443 14.6822 3.36863C14.6552 3.40279 14.6554 3.4523 14.6862 3.48311V3.48311C14.7173 3.51415 14.7673 3.51421 14.8012 3.48641C14.9174 3.3913 15.052 3.32877 15.2051 3.29883C15.3887 3.26367 15.6055 3.24609 15.8555 3.24609L18.082 3.36914C18.4453 3.36914 18.7656 3.33789 19.043 3.27539C19.2956 3.21925 19.5152 3.1111 19.7016 2.95095C19.7369 2.92058 19.79 2.9209 19.823 2.95384V2.95384C19.8554 2.98622 19.8563 3.03817 19.8273 3.07361C19.57 3.38829 19.4414 3.81101 19.4414 4.3418C19.4414 4.86539 19.5566 5.26715 19.7869 5.54706C19.818 5.58481 19.8169 5.64067 19.7815 5.67438V5.67438C19.7483 5.70608 19.6964 5.70672 19.6603 5.67834C19.3016 5.39669 18.7482 5.25586 18 5.25586L15.8086 5.37891C15.3262 5.37891 14.9819 5.29955 14.7756 5.14084C14.7394 5.11296 14.6869 5.11327 14.6554 5.14642V5.14642C14.6253 5.17809 14.6261 5.22758 14.6531 5.26191C14.7633 5.40189 14.8184 5.57761 14.8184 5.78906Z" fill="#6E06F2"/>
</svg>
